<svg width="39" height="33" viewBox="0 0 39 33" fill="none" xmlns="http://www.w3.org/2000/svg">
<path fill-rule="evenodd" clip-rule="evenodd" d="M19.6748 5.58793V2.2769L15.1125 2.2769C14.7666 2.2769 14.4857 2.02966 14.4857 1.72518V0.621731C14.4857 0.31718 14.7666 0.0700073 15.1125 0.0700073L23.8875 0.0700073C24.2335 0.0700073 24.5143 0.31718 24.5143 0.621731V1.72518C24.5143 2.02966 24.2335 2.2769 23.8875 2.2769L20.4395 2.2769V5.60684C29.5425 5.98731 36.8862 11.8722 36.7701 19.9321C33.6914 19.9321 7.32217 19.8362 2.22857 19.9321C2.18968 10.995 9.96751 5.58725 19.4994 5.58725C19.5579 5.58725 19.6164 5.58748 19.6748 5.58793ZM39 32.0091C34.0355 32.0119 4.60765 32.1447 9.46842e-05 32.0091C-0.0150277 26.7505 1.78327 24.3459 3.97968 24.3459L35.0204 24.3459C37.2168 24.3459 39 26.7157 39 32.0091Z" fill="#FF5A00"/>
</svg>
