<svg width="35" height="22" viewBox="0 0 35 22" fill="none" xmlns="http://www.w3.org/2000/svg">
<path fill-rule="evenodd" clip-rule="evenodd" d="M31.7049 0H3.29594C1.47588 0 0 1.4503 0 3.23869V18.7603C0 20.5497 1.47588 22 3.29594 22H31.7041C33.5252 22 35 20.5497 35 18.7603V3.23869C35.0009 1.44933 33.5252 0 31.7049 0ZM9 19H12V16H9V19ZM9 15H12V12H9V15ZM9 10H12V7H9V10ZM9 6H12V3H9V6ZM30.7803 6.2071C30.4874 5.93097 30.0126 5.93097 29.7197 6.2071L20.7342 14.6779L17.2803 11.4219C16.9875 11.1457 16.5126 11.1458 16.2197 11.4219C15.9268 11.698 15.9268 12.1456 16.2197 12.4217L20.2039 16.1776C20.4967 16.4537 20.9719 16.4535 21.2645 16.1776L30.7803 7.20699C31.0732 6.93089 31.0732 6.48323 30.7803 6.2071Z" fill="#FF5A00"/>
</svg>
