<svg width="35" height="32" viewBox="0 0 35 32" fill="none" xmlns="http://www.w3.org/2000/svg">
<path fill-rule="evenodd" clip-rule="evenodd" d="M7.73876 2.71671V1.11528C7.73876 -0.37176 10.1673 -0.37176 10.1673 1.11528V2.71671H25.8952V1.11528C25.8952 -0.37176 28.3238 -0.37176 28.3238 1.11528V2.71671H30.5211C32.9496 2.71671 34.8 4.6613 34.8 6.94906V27.7677C34.8 30.1698 32.9496 32 30.5211 32H5.0789C2.65033 32 0.799988 30.1698 0.799988 27.7677V6.94906C0.799988 4.6613 2.65033 2.71671 5.0789 2.71671H7.73876ZM3.22856 11.2958H32.3714V6.94906C32.3714 5.91957 31.5619 5.11886 30.5211 5.11886H28.3238V6.6059C28.3238 8.20733 25.8952 8.20733 25.8952 6.6059V5.11886H10.1673V6.6059C10.1673 8.20733 7.73876 8.20733 7.73876 6.6059V5.11886H5.0789C4.03808 5.11886 3.22856 5.91957 3.22856 6.94906V11.2958ZM32.3714 13.6979H3.22856V27.7677C3.22856 28.7971 4.03808 29.7122 5.0789 29.7122H30.5211C31.5619 29.7122 32.3714 28.7971 32.3714 27.7677V13.6979Z" fill="#FF5A00"/>
<path d="M26.819 16.6345L26.7604 16.5786L26.7019 16.5414C26.4093 16.3737 25.8632 16.2992 25.0829 16.2992C23.8345 16.2992 21.1037 17.8641 20.343 18.3112L14.2181 15.2L11.8579 15.4422L17.261 19.7271L12.2675 22.3353L10.5315 21.1244L9.49768 21.5342L12.3065 26.9556L13.2623 26.3967L13.3208 24.4219L18.4314 21.9627L19.6018 28.8L21.1427 27.1792L21.7474 20.7331C22.5862 20.3978 25.4926 19.2055 26.2338 18.2553C26.975 17.2866 26.9555 16.8394 26.819 16.6345Z" fill="#FF5A00"/>
</svg>
