<svg width="33" height="30" viewBox="0 0 33 30" fill="none" xmlns="http://www.w3.org/2000/svg">
<path d="M31.7114 6.18879C30.8519 5.31748 29.8152 4.8817 28.6005 4.8817H24.7505L23.8741 2.5117C23.6563 1.94249 23.2583 1.45153 22.6793 1.03888C22.1006 0.626426 21.5077 0.420044 20.9004 0.420044H12.1001C11.4928 0.420044 10.8998 0.626426 10.3211 1.03888C9.74236 1.45153 9.34432 1.94249 9.12657 2.5117L8.25004 4.8817H4.40002C3.18523 4.8817 2.14845 5.31748 1.28896 6.18879C0.429654 7.06016 0 8.11154 0 9.34318V24.9584C0 26.1901 0.429654 27.2416 1.28896 28.1128C2.14845 28.9843 3.18529 29.42 4.40002 29.42H28.6001C29.8148 29.42 30.8514 28.9843 31.711 28.1128C32.5702 27.2416 33 26.1901 33 24.9584V9.34318C33.0002 8.11154 32.5705 7.06016 31.7114 6.18879ZM22.4629 22.6275C20.9382 24.1349 19.1035 24.8888 16.9583 24.8888C14.8131 24.8888 12.9785 24.1349 11.4537 22.6275C9.92892 21.1203 9.16667 19.3061 9.16667 17.1857C9.16667 15.0647 9.92916 13.2511 11.4537 11.7436C12.9784 10.2361 14.8132 9.48254 16.9583 9.48254C19.1034 9.48254 20.9382 10.2363 22.4629 11.7436C23.9876 13.2509 24.75 15.0647 24.75 17.1857C24.75 19.3061 23.9877 21.1201 22.4629 22.6275Z" fill="#FF5A00"/>
</svg>
