<svg width="55" height="24" viewBox="0 0 55 24" fill="none" xmlns="http://www.w3.org/2000/svg">
<path d="M52.9629 9.12231C51.9533 8.79798 44.9306 7.32326 44.9306 7.32326C44.9306 7.32326 31.9121 0.210022 30.3497 0.210022C28.7874 0.210022 18.0701 0.214599 18.0701 0.214599C15.4516 0.214599 13.2633 2.13187 10.7296 4.35163C9.53548 5.39753 8.21746 6.5486 6.76365 7.57247L1.34912 8.26424C0.566716 8.50395 0 9.20737 0 10.0385V15.9994C0 17.0281 0.867778 17.8621 1.93848 17.8621H5.65915C5.92939 20.8542 8.54872 23.21 11.7316 23.21C14.9143 23.21 17.5338 20.8541 17.8041 17.8622H35.5701C35.8403 20.8543 38.4596 23.21 41.6425 23.21C44.8254 23.21 47.4447 20.8541 47.715 17.8622H50.7717C53.1937 17.8622 54.3772 16.857 54.6744 15.9135C55.4258 13.526 54.8853 9.7399 52.9629 9.12231ZM12.0001 20.21C10.3459 20.21 9 18.8643 9 17.2101C9 15.5559 10.3457 14.21 12.0001 14.21C13.6543 14.21 15 15.5557 15 17.2101C15.0001 18.8643 13.6543 20.21 12.0001 20.21ZM24 7.21002H13C13.7956 6.574 14.5313 5.89888 15.209 5.27391C16.99 3.63078 18.5283 2.21163 20.3689 2.21163C20.3689 2.21163 22.0347 2.21087 24 2.21002V7.21002ZM26 2.21087C27.3452 2.2104 28.5443 2.21002 29.1459 2.21002C30.6439 2.21002 36.7197 5.82154 39 7.21002H26V2.21087ZM41.9999 20.21C40.3457 20.21 39 18.8643 39 17.2101C39 15.5559 40.3457 14.21 41.9999 14.21C43.6541 14.21 45 15.5557 45 17.2101C45 18.8643 43.6541 20.21 41.9999 20.21Z" fill="#FF5A00"/>
</svg>
