<svg width="65" height="30" viewBox="0 0 65 30" fill="none" xmlns="http://www.w3.org/2000/svg">
<path d="M60.7886 17.3626C63.1713 15.7143 64.5013 14.2308 64.5013 14.2308C64.7783 13.956 64.9446 14.1758 64.9446 14.1758V15.989C64.7783 16.8132 64.3904 17.0879 63.6701 17.8022C60.0682 21.2088 57.1867 22.8022 56.3001 23.2418C51.2575 26.044 49.2072 27.0879 43.555 28.5714C37.9028 30.0549 33.636 30.0549 30.9761 29.9451C25.6564 29.7802 21.3896 28.6264 18.5081 27.6923C15.6266 26.7582 9.30946 23.8462 6.04007 21.4835C2.77067 19.1209 0.831202 17.3626 0.831202 17.3626C0 16.5934 0 15.7143 0 15.7143V14.2308C0.0554135 13.9011 0.387894 14.1758 0.387894 14.1758C1.71782 15.7143 3.87894 17.1978 5.31969 18.1319C6.9821 19.2308 8.25661 19.9451 9.8636 20.7692C15.1833 23.6813 21.8883 24.9451 22.4425 25.0549C34.0793 27.1429 41.948 25.2198 41.948 25.2198C50.7033 23.5165 53.9727 21.3187 54.8039 20.9341C55.6905 20.4945 59.1816 18.4615 60.7886 17.3626Z" fill="white"/>
<path d="M16.2362 2.08791C15.8483 2.08791 15.5712 2.36264 15.5712 2.74725V21.4286C15.5712 21.7582 15.8483 22.0879 16.2362 22.0879H49.318C49.6505 22.0879 49.983 21.8132 49.983 21.4286V2.74725C49.983 2.36264 49.7059 2.08791 49.318 2.08791H16.2362ZM49.318 24.2308H16.2362C14.6846 24.2308 13.4655 23.022 13.4655 21.4835V2.74725C13.4655 1.20879 14.74 0 16.2362 0H49.318C50.8696 0 52.0887 1.20879 52.0887 2.74725V21.4286C52.0887 22.967 50.8696 24.2308 49.318 24.2308Z" fill="white"/>
<path d="M50.925 6.42857H14.74V9.56044H50.925V6.42857Z" fill="white"/>
</svg>
