<svg width="48" height="48" viewBox="0 0 48 48" fill="none" xmlns="http://www.w3.org/2000/svg">
<rect width="48" height="48" rx="24" fill="white"/>
<path fill-rule="evenodd" clip-rule="evenodd" d="M30.7046 21.6429L26.6626 19.5357L26.41 9.39286C26.41 9.39286 26.1573 8.17857 25.8205 7.57143C25.4416 6.96429 24.5153 6 24.0942 6C23.6732 6 22.7048 6.96429 22.3679 7.57143C21.989 8.17857 21.7785 9.39286 21.7785 9.39286L21.5259 19.5357L17.4839 21.6429L15.6734 22.5714L3.42104 28.8929L3 28.4286L3 30.7143L21.3995 26.1071C21.3995 26.1071 21.4417 28.75 21.5259 31.3214C21.568 33.8929 22.2837 36.9286 22.2837 36.9286L16.8523 40.1786L16.4734 39.7857V42L23.1679 40.3929C23.589 41.3929 24.0521 42 24.0521 42C24.0521 42 24.5153 41.3929 24.9363 40.3929L31.6309 42V39.7857L31.2519 40.1786L25.8205 36.9286C25.8205 36.9286 26.5363 33.8929 26.5784 31.3214C26.6205 28.75 26.7047 26.1071 26.7047 26.1071L45.1463 30.7143V28.4286L44.7253 28.8929L32.473 22.5714L30.7046 21.6429Z" fill="#FF5A00"/>
</svg>
