<svg width="35" height="31" viewBox="0 0 35 31" fill="none" xmlns="http://www.w3.org/2000/svg">
<path d="M30.2111 1.96376C29.8333 0.857507 28.7756 0.0700073 27.5289 0.0700073H6.75111C5.50444 0.0700073 4.46556 0.857507 4.06889 1.96376L0.139999 13.195V28.195C0.139999 29.2263 0.99 30.07 2.02889 30.07H3.91778C4.95667 30.07 5.80667 29.2263 5.80667 28.195V26.32H28.4733V28.195C28.4733 29.2263 29.3233 30.07 30.3622 30.07H32.2511C33.29 30.07 34.14 29.2263 34.14 28.195V13.195L30.2111 1.96376ZM6.14 21.07C4.48 21.07 3.14 19.9533 3.14 18.57C3.14 17.1867 4.48 16.07 6.14 16.07C7.8 16.07 9.14 17.1867 9.14 18.57C9.14 19.9533 7.8 21.07 6.14 21.07ZM28.14 21.07C26.48 21.07 25.14 19.9533 25.14 18.57C25.14 17.1867 26.48 16.07 28.14 16.07C29.8 16.07 31.14 17.1867 31.14 18.57C31.14 19.9533 29.8 21.07 28.14 21.07ZM4.14 11.07L7.03286 3.07001H28.2471L31.14 11.07H4.14Z" fill="#FF5A00"/>
</svg>
