<svg width="110" height="84" viewBox="0 0 110 84" fill="none" xmlns="http://www.w3.org/2000/svg">
<path d="M102.425 61.5056L102.206 61.6174C101.821 61.8274 101.425 62.0171 101.02 62.1858C100.376 62.4443 99.7151 62.6592 99.0421 62.8293C99.6381 63.729 100.095 64.7137 100.397 65.7498C103.959 67.0961 106.318 70.505 106.322 74.3132C106.328 79.376 102.229 83.4849 97.1666 83.4909H66C59.9273 83.4849 55.006 78.5636 55 72.4909H18.3334C17.7431 72.5159 17.1518 72.4815 16.5686 72.3883C11.7696 71.6205 8.5015 67.1076 9.26944 62.3086C3.80291 60.1341 0.162834 54.9058 0.0202929 49.0243C0.00562628 48.9026 -0.00101954 48.7802 0.000126287 48.6576C0.00860544 41.0926 5.76274 34.772 13.2936 34.0552C14.8625 27.9415 20.1523 23.5071 26.4459 23.0295C29.6357 10.5154 40.6544 1.57407 53.5572 1.02957C54.5288 0.991067 55.429 0.989233 56.3805 1.02957C69.3014 1.54382 80.3499 10.484 83.5486 23.013C83.8071 22.991 84.0692 22.991 84.3332 22.991H84.3333C90.7486 22.9995 96.1754 27.7366 97.0511 34.0918C104.431 34.9714 109.991 41.2253 110 48.6576C110.001 48.7802 109.994 48.9026 109.98 49.0243C109.854 53.8945 107.332 58.3885 103.24 61.0326C103.02 61.1664 102.837 61.2691 102.654 61.3754L102.425 61.5056Z" fill="white"/>
<path d="M102.207 61.372L102.425 61.2602L102.654 61.13C102.837 61.0237 103.021 60.921 103.241 60.7872C107.332 58.143 109.854 53.6491 109.98 48.7788C109.995 48.6572 110.001 48.5348 110 48.4122C109.991 40.9799 104.431 34.7259 97.0512 33.8464C96.1756 27.4911 90.7487 22.754 84.3334 22.7456C84.0694 22.7456 83.8072 22.7456 83.5487 22.7676C80.35 10.2386 69.3015 1.29836 56.3806 0.784114C55.4291 0.74378 54.529 0.745614 53.5573 0.784114C40.6546 1.32861 29.6358 10.27 26.446 22.7841C20.1524 23.2617 14.8626 27.696 13.2937 33.8097C5.76286 34.5265 0.00872751 40.8472 0.000248358 48.4122C-0.000897473 48.5348 0.00574835 48.6572 0.020415 48.7788C0.162956 54.6604 3.80303 59.8886 9.26956 62.0632C8.50163 66.8621 11.7698 71.3751 16.5687 72.1428C17.152 72.2361 17.7432 72.2704 18.3335 72.2455H55.0001C55.0061 78.3181 59.9274 83.2395 66.0001 83.2454H97.1667C102.229 83.2395 106.329 79.1305 106.322 74.0678C106.318 70.2595 103.959 66.8507 100.397 65.5043C100.095 64.4683 99.6383 63.4835 99.0422 62.5838C99.7153 62.4138 100.376 62.1988 101.02 61.9403C101.425 61.7717 101.821 61.5819 102.207 61.372ZM55.6418 68.5788H18.3335C15.2959 68.5788 12.8336 66.1164 12.8336 63.0788C12.8336 60.0412 15.2959 57.5788 18.3335 57.5788C18.8079 57.5827 19.2802 57.6441 19.7397 57.7622C20.7219 58.0078 21.7174 57.4109 21.9631 56.4286C22.0204 56.1999 22.0327 55.9625 22.0002 55.729C22.0094 52.6978 24.469 50.2455 27.5002 50.2455C27.9805 50.2435 28.4588 50.3051 28.9229 50.4288C29.8993 50.6965 30.9079 50.122 31.1758 49.1457C31.2037 49.0438 31.223 48.9393 31.2329 48.8339C32.0003 40.7702 39.1595 34.8554 47.2231 35.6229C54.7593 36.3402 60.5113 42.6752 60.5001 50.2455V50.4838C60.4997 51.4963 61.3201 52.3176 62.3328 52.3179C62.501 52.3179 62.6685 52.2949 62.8303 52.2493C63.2657 52.1304 63.7155 52.0729 64.1668 52.0788C67.2044 52.0788 69.6668 54.5412 69.6668 57.5788C69.6668 57.6613 69.6503 57.7383 69.6448 57.819C68.6433 58.8388 67.8208 60.0201 67.2119 61.3133C66.8095 61.2679 66.405 61.2453 66.0001 61.2455C61.343 61.2508 57.1939 64.1882 55.6418 68.5788ZM102.667 74.0788C102.667 77.1164 100.204 79.5788 97.1667 79.5788H66.0001C61.9501 79.582 58.6643 76.3013 58.6611 72.2512C58.6579 68.2011 61.9386 64.9154 65.9886 64.9121C66.6308 64.9117 67.2701 64.9956 67.8905 65.1615C68.8365 65.4154 69.815 64.881 70.1125 63.9478C71.6564 59.1264 76.8165 56.4694 81.638 58.0133C83.3189 58.5516 84.8089 59.5639 85.9286 60.9283C86.3899 61.4861 87.1361 61.7203 87.8335 61.526C91.749 60.4329 95.8093 62.7211 96.9022 66.6366C96.9607 66.8461 97.0097 67.0578 97.0496 67.2716C97.1759 67.9921 97.7185 68.5685 98.4301 68.7383C100.912 69.3172 102.668 71.5302 102.667 74.0788ZM100.547 58.1013C100.25 58.2652 99.9442 58.4128 99.6307 58.5432C98.8724 58.8576 98.0827 59.0897 97.2749 59.2362C97.0411 59.2836 96.8049 59.3177 96.5672 59.3388C96.4955 59.3388 96.4238 59.3443 96.3527 59.3553C96.1694 59.3773 96.0007 59.3755 95.8247 59.3847C93.5113 57.8607 90.7056 57.2711 87.9744 57.7347C84.0534 53.7412 77.9901 52.7634 73.0126 55.322C71.9836 51.2717 68.3456 48.4298 64.1668 48.4122H64.0751C63.0698 38.3371 54.0874 30.9843 44.0121 31.9897C36.0142 32.7876 29.4685 38.7024 27.8669 46.5789C23.3809 46.4226 19.434 49.5184 18.5169 53.9122C15.1727 53.878 12.0716 55.6561 10.4117 58.5597C6.38917 56.8696 3.74895 52.9582 3.68524 48.5955C3.68409 48.5165 3.67791 48.4374 3.66691 48.359C3.72122 42.2588 8.71062 37.3577 14.8108 37.4122C14.8117 37.4122 14.8126 37.4122 14.8135 37.4122C15.7268 37.412 16.5007 36.7398 16.6285 35.8355C17.4185 30.4355 22.0426 26.4274 27.5002 26.4122C27.5728 26.4086 27.6457 26.4086 27.7184 26.4122C28.6841 26.5307 29.5741 25.8739 29.746 24.9162C32.0482 13.375 41.9574 4.91346 53.7168 4.44711C54.5638 4.41227 55.3796 4.41044 56.2175 4.44711C68.0759 4.88436 78.0604 13.4552 80.2891 25.1106C80.4607 26.1084 81.4088 26.7782 82.4066 26.6066C82.4263 26.6031 82.4458 26.5995 82.4652 26.5956C83.0803 26.4718 83.7062 26.4104 84.3334 26.4122C89.3934 26.4182 93.4941 30.5189 93.5 35.5789C93.5 36.5913 94.3209 37.4122 95.3334 37.4122C101.385 37.4211 106.296 42.3095 106.333 48.3608C106.32 48.4569 106.314 48.5536 106.315 48.6505C106.24 52.311 104.355 55.696 101.283 57.687C101.143 57.7732 101.002 57.8502 100.857 57.9327L100.547 58.1013Z" fill="#FF5A00"/>
</svg>
