<svg width="43" height="36" viewBox="0 0 43 36" fill="none" xmlns="http://www.w3.org/2000/svg">
<path d="M34.7306 22.5493C34.7306 29.871 28.7951 35.8065 21.4733 35.8065C14.1516 35.8065 8.21608 29.871 8.21608 22.5493C8.21608 15.2275 14.1516 9.29204 21.4733 9.29204C28.7951 9.29204 34.7306 15.2275 34.7306 22.5493Z" fill="#FF5A00"/>
<path d="M14.0762 13.2849C11.1533 17.5473 6.09637 19.1597 2.78116 16.8864C-0.534041 14.613 -0.852069 9.3147 2.07083 5.05229C4.99372 0.789887 10.0507 -0.82255 13.3659 1.45081C16.6811 3.72418 16.9991 9.02246 14.0762 13.2849Z" fill="#FF5A00"/>
<path d="M28.0654 13.2849C30.9883 17.5473 36.0453 19.1597 39.3605 16.8864C42.6757 14.613 42.9937 9.3147 40.0708 5.05229C37.1479 0.789887 32.091 -0.82255 28.7758 1.45081C25.4606 3.72418 25.1425 9.02246 28.0654 13.2849Z" fill="#FF5A00"/>
</svg>
