<svg width="41" height="42" viewBox="0 0 41 42" fill="none" xmlns="http://www.w3.org/2000/svg">
<g clip-path="url(#clip0)">
<path d="M17.5352 18.9322C18.3237 19.0855 25.4314 20.4082 25.8614 18.1959L26.3025 15.9269C26.7325 13.7146 19.6469 12.2785 18.8583 12.1252C18.0698 11.9719 10.9621 10.6492 10.5321 12.8615L10.091 15.1305C9.66102 17.3427 16.7467 18.7789 17.5352 18.9322ZM11.2285 15.2927L11.4049 14.3851C11.5629 14.4747 11.7098 14.621 11.9241 14.7215L11.7146 15.7993C11.466 15.5743 11.2628 15.4171 11.2285 15.2927ZM16.8498 16.4442L16.6293 17.5787C16.0097 17.4583 15.4575 17.2921 14.9616 17.1368L15.1822 16.0023C15.7907 16.1795 16.3539 16.289 16.8498 16.4442ZM13.8682 16.7477C13.485 16.6143 13.1018 16.481 12.7859 16.3018L12.9954 15.2241C13.3223 15.3465 13.7055 15.4798 14.0888 15.6132L13.8682 16.7477ZM17.7557 17.7977L17.9762 16.6632C18.5958 16.7836 22.7184 17.5261 24.9224 17.0126L24.735 17.977C24.3762 18.3193 21.7546 18.575 17.7557 17.7977ZM19.37 13.402C19.4263 13.413 19.539 13.4349 19.5953 13.4458C19.7643 13.4786 19.8769 13.5005 20.0459 13.5334C20.1585 13.5553 20.2149 13.5662 20.3275 13.5881C20.4402 13.61 20.6091 13.6429 20.7218 13.6648C20.8344 13.6867 20.8907 13.6976 21.0034 13.7195C21.116 13.7414 21.2287 13.7633 21.3413 13.7852C21.454 13.8071 21.5103 13.818 21.6229 13.8399C21.7356 13.8618 21.8482 13.8837 21.9498 13.9623C22.0625 13.9842 22.1188 13.9952 22.1641 14.0629C22.2768 14.0848 22.3331 14.0957 22.4347 14.1743C22.491 14.1853 22.6037 14.2072 22.649 14.2748C22.7616 14.2967 22.8179 14.3077 22.9195 14.3863C22.9759 14.3973 23.0885 14.4192 23.1338 14.4868C23.1901 14.4978 23.2918 14.5764 23.3481 14.5873C23.4044 14.5983 23.4497 14.666 23.5623 14.6879C23.6187 14.6988 23.7203 14.7774 23.7766 14.7884C23.8329 14.7993 23.8782 14.867 23.9345 14.8779C23.9909 14.8889 24.0362 14.9566 24.0925 14.9675C24.1488 14.9785 24.1941 15.0461 24.2504 15.0571C24.3068 15.068 24.3521 15.1357 24.4084 15.1467C24.4647 15.1576 24.51 15.2253 24.51 15.2253C24.5663 15.2362 24.6116 15.3039 24.6116 15.3039C24.6679 15.3148 24.6569 15.3716 24.7132 15.3825C24.7696 15.3935 24.7585 15.4502 24.8149 15.4611C24.8712 15.4721 24.8602 15.5288 24.9165 15.5398C24.9728 15.5507 24.9618 15.6074 25.0181 15.6184L25.0634 15.6861L25.1087 15.7537L25.154 15.8214C24.6715 16.1986 22.1173 16.4085 18.231 15.6531C14.3448 14.8977 12.0552 13.7462 11.7491 13.2158C11.7491 13.2158 11.8055 13.2267 11.8165 13.17L11.8838 13.1242C11.8838 13.1242 11.9402 13.1352 11.9512 13.0784C11.9512 13.0784 12.0185 13.0327 12.0749 13.0436C12.1312 13.0546 12.1422 12.9978 12.1985 13.0088C12.2549 13.0197 12.2659 12.963 12.3222 12.9739C12.3785 12.9849 12.3896 12.9282 12.4459 12.9391C12.5022 12.9501 12.5696 12.9043 12.6259 12.9152C12.6822 12.9262 12.7495 12.8804 12.7495 12.8804C12.8059 12.8914 12.8732 12.8456 12.9295 12.8565C12.9859 12.8675 13.0532 12.8217 13.1095 12.8326C13.0642 12.765 13.1769 12.7869 13.2332 12.7978C13.2895 12.8088 13.3569 12.763 13.4132 12.7739C13.4695 12.7849 13.5369 12.7391 13.6495 12.761C13.7058 12.772 13.7732 12.7262 13.8858 12.7481C13.9422 12.759 14.0658 12.7242 14.1222 12.7351C14.1785 12.7461 14.2911 12.768 14.3585 12.7222C14.4148 12.7332 14.5274 12.755 14.6511 12.7202C14.7074 12.7312 14.8201 12.7531 14.8874 12.7073C15.0001 12.7292 15.0564 12.7401 15.1801 12.7053C15.2364 12.7163 15.349 12.7381 15.4164 12.6924C15.529 12.7143 15.6417 12.7362 15.7654 12.7013C15.878 12.7232 15.9343 12.7342 16.047 12.7561C16.1596 12.778 16.2723 12.7999 16.3849 12.8218C16.4975 12.8437 16.5539 12.8546 16.6665 12.8765C16.7792 12.8984 16.8918 12.9203 17.0608 12.9531C17.1734 12.975 17.2297 12.986 17.3424 13.0079C17.5114 13.0407 17.624 13.0626 17.793 13.0955C17.8493 13.1064 17.9619 13.1283 18.0183 13.1393C18.2436 13.183 18.4689 13.2268 18.7505 13.2816C19.0321 13.3363 19.1447 13.3582 19.37 13.402Z" fill="white"/>
<path d="M27.3999 29.5C29.5517 29.5 31.9944 29.0281 32.4597 28.9691C33.2739 28.7922 40.4273 27.3176 40.0202 25.0762L39.5549 22.7759C39.0897 20.5345 31.9362 21.8911 31.122 22.0681C29.8425 22.304 28.6794 22.6579 27.5744 23.0118C26.9346 23.2477 26.3531 23.4247 25.8296 23.6606C24.143 24.4274 23.387 25.1942 23.5615 25.961L24.0267 28.2613C24.2012 29.2051 25.7133 29.5 27.3999 29.5ZM24.9573 27.0227C25.1317 27.0817 25.3644 27.0817 25.597 27.1407L25.8296 28.2024C25.4807 28.1434 25.3062 28.0844 25.1899 27.9664L24.9573 27.0227ZM24.7828 25.6071L24.8409 25.5481L24.8991 25.4891L24.9573 25.4301L25.0154 25.3712C25.0736 25.3712 25.0736 25.3122 25.1317 25.3122C25.1899 25.3122 25.1899 25.2532 25.248 25.2532C25.3062 25.2532 25.3062 25.1942 25.3644 25.1942C25.4225 25.1942 25.4225 25.1352 25.4807 25.1352C25.5388 25.1352 25.597 25.0762 25.6552 25.0762C25.7133 25.0762 25.7715 25.0173 25.8296 25.0173C25.8878 25.0173 25.9459 24.9583 26.0041 24.9583C26.0623 24.9583 26.1204 24.8993 26.1786 24.8993C26.2367 24.8993 26.2949 24.8403 26.3531 24.8403C26.4112 24.8403 26.4694 24.7813 26.5275 24.7813C26.5857 24.7223 26.702 24.7223 26.7602 24.6634C26.8183 24.6044 26.8765 24.6044 26.9928 24.5454C27.0509 24.4864 27.1673 24.4864 27.2254 24.4274C27.2836 24.3684 27.3999 24.3684 27.4581 24.3094C27.5162 24.2505 27.6325 24.2505 27.6907 24.1915C27.807 24.1325 27.8652 24.1325 27.9815 24.0735C28.0978 24.0735 28.156 24.0145 28.2723 24.0145C28.3886 23.9555 28.4467 23.9555 28.5631 23.8966C28.6794 23.8966 28.7375 23.8376 28.8538 23.8376C28.9702 23.7786 29.0865 23.7786 29.2028 23.7196C29.3191 23.7196 29.3773 23.6606 29.4936 23.6606C29.6099 23.6016 29.7262 23.6016 29.8425 23.5427C29.9007 23.5427 30.017 23.4837 30.0752 23.4837C30.1915 23.4247 30.366 23.4247 30.4823 23.3657H30.5404C30.7731 23.3067 30.9475 23.2477 31.1802 23.2477C31.4128 23.1888 31.7036 23.1298 31.9362 23.1298C31.9944 23.1298 32.0525 23.1298 32.1107 23.1298C32.2852 23.0708 32.4596 23.0708 32.6341 23.0708C32.6923 23.0708 32.7504 23.0708 32.8668 23.0118C33.0412 23.0118 33.1575 22.9528 33.332 22.9528C33.3902 22.9528 33.5065 22.9528 33.5647 22.9528C33.681 22.9528 33.8554 22.8938 33.9718 22.8938C34.0299 22.8938 34.0881 22.8938 34.2044 22.8938C34.3207 22.8938 34.437 22.8938 34.6115 22.8349C34.6697 22.8349 34.7278 22.8349 34.8441 22.8349C34.9605 22.8349 35.0768 22.8349 35.1931 22.8349C35.2512 22.8349 35.3094 22.8349 35.3676 22.8349C35.4839 22.8349 35.6002 22.8349 35.6583 22.8349C35.7165 22.8349 35.7747 22.8349 35.8328 22.8349C35.9491 22.8349 36.0073 22.8349 36.1236 22.8349C36.1818 22.8349 36.2399 22.8349 36.2981 22.8349C36.3562 22.8349 36.4726 22.8349 36.5307 22.8349C36.5889 22.8349 36.647 22.8349 36.7052 22.8349C36.7633 22.8349 36.8797 22.8349 36.9378 22.8349C36.996 22.8349 37.0541 22.8349 37.1123 22.8349C37.1705 22.8349 37.2286 22.8349 37.2868 22.8349C37.3449 22.8349 37.4031 22.8349 37.4031 22.8349C37.4612 22.8349 37.5194 22.8349 37.5776 22.8349C37.6357 22.8349 37.6357 22.8349 37.6939 22.8349C37.752 22.8349 37.8102 22.8349 37.8102 22.8349C37.8684 22.8349 37.8684 22.8349 37.9265 22.8349C37.9847 22.8349 37.9847 22.8349 38.0428 22.8938H38.101C38.101 22.8938 38.1591 22.8938 38.1591 22.9528C38.1591 22.9528 38.2173 22.9528 38.2173 23.0118C38.2173 23.0118 38.2173 23.0118 38.2755 23.0118C37.9265 23.5427 35.6583 24.7223 31.7036 25.5481C27.7488 26.3149 25.1899 26.1379 24.6665 25.7251C24.7246 25.6661 24.7246 25.6661 24.7828 25.6071C24.7828 25.6661 24.7828 25.6071 24.7828 25.6071ZM30.8312 26.8457L31.0639 28.0254C30.4241 28.1434 29.8425 28.2024 29.3191 28.2613L29.0865 27.0817C29.7262 27.0227 30.366 26.9047 30.8312 26.8457ZM26.9928 28.3203L26.7602 27.1996C26.8183 27.1996 26.8765 27.1996 26.9346 27.1996C27.2836 27.1996 27.6325 27.1996 27.9233 27.1407L28.156 28.2613C27.7488 28.3203 27.3417 28.3203 26.9928 28.3203ZM32.227 27.7895L31.9944 26.6098C32.6341 26.4918 36.7633 25.6071 38.6244 24.2505L38.7989 25.1942C38.6244 25.7251 36.2981 26.9637 32.227 27.7895Z" fill="white"/>
<path d="M22.0894 34.0086C20.093 33.499 18.2153 33.1958 16.709 33.1468C14.9111 33.1213 13.9342 33.4615 13.7393 34.2388L13.1937 36.4993C12.6321 38.7042 19.6634 40.5355 20.4367 40.7345C22.4332 41.2441 24.3108 41.5473 25.8171 41.5963C26.5978 41.6129 27.2364 41.5501 27.7328 41.4077C28.3395 41.2337 28.6778 40.9564 28.7869 40.5043L29.3325 38.2438C29.894 36.0389 22.9179 34.1918 22.0894 34.0086ZM22.5269 35.3259C22.598 35.3656 22.669 35.4054 22.7793 35.3738C22.9056 35.3977 23.1029 35.4613 23.2291 35.4852C23.3002 35.525 23.4265 35.5489 23.4975 35.5886C23.6238 35.6125 23.75 35.6365 23.8922 35.7159C23.9633 35.7557 24.0895 35.7796 24.1606 35.8193C24.2868 35.8432 24.3579 35.883 24.4841 35.9069C24.5552 35.9466 24.6263 35.9863 24.7525 36.0103C24.8788 36.0342 24.9499 36.0739 25.0761 36.0978C25.1472 36.1376 25.2183 36.1773 25.2893 36.217C25.3604 36.2568 25.4867 36.2807 25.5578 36.3204C25.6288 36.3601 25.6999 36.3999 25.7551 36.3841C25.8262 36.4238 25.9524 36.4477 26.0235 36.4874C26.0946 36.5272 26.1656 36.5669 26.2208 36.5511C26.2919 36.5908 26.363 36.6306 26.434 36.6703C26.5051 36.71 26.5603 36.6942 26.5762 36.7498C26.6473 36.7895 26.7184 36.8292 26.7895 36.869C26.8605 36.9087 26.8605 36.9087 26.9316 36.9484C27.0027 36.9882 27.0738 37.0279 27.1449 37.0676C27.2159 37.1074 27.2159 37.1074 27.287 37.1471C27.3581 37.1868 27.4292 37.2266 27.4451 37.2821C27.5162 37.3218 27.5162 37.3218 27.5321 37.3774C27.6032 37.4171 27.6191 37.4727 27.6743 37.4569C27.6902 37.5124 27.7454 37.4966 27.7454 37.4966C27.8165 37.5363 27.8165 37.5363 27.8875 37.5761L27.9586 37.6158C27.9746 37.6713 28.0297 37.6555 28.0456 37.7111C28.0456 37.7111 28.0616 37.7666 28.1167 37.7508C28.1327 37.8063 28.1878 37.7905 28.1878 37.7905L28.2037 37.8461C28.2037 37.8461 28.2037 37.8461 28.2197 37.9016C27.7159 38.2264 25.1691 38.2955 21.3023 37.3002C17.4356 36.3049 15.2161 35.0176 14.9465 34.4938C14.9465 34.4938 14.9465 34.4938 15.0016 34.478L15.0568 34.4621C15.1119 34.4463 15.1119 34.4463 15.1671 34.4305C15.1671 34.4305 15.1671 34.4305 15.2223 34.4147C15.2774 34.3989 15.3326 34.3831 15.3877 34.3673C16.3572 34.2095 18.6994 34.2593 21.919 35.0794C22.0771 35.2144 22.3296 35.2623 22.5269 35.3259ZM16.0726 36.7558C16.4121 36.8989 16.7675 37.0976 17.1622 37.2249L16.8814 38.3274C16.4708 38.1445 16.1313 38.0014 15.847 37.8425L16.0726 36.7558ZM18.2358 37.6384C18.7726 37.8452 19.2935 37.9964 19.8854 38.1874L19.6046 39.2899C19.0127 39.0989 18.4918 38.9477 17.955 38.7409L18.2358 37.6384ZM14.548 35.8103C14.7061 35.9454 14.8483 36.0248 15.0615 36.144L14.82 37.1751C14.5197 36.9606 14.4168 36.8098 14.3298 36.7145L14.548 35.8103ZM20.7175 39.632C20.7016 39.5765 20.6464 39.5923 20.7175 39.632L20.9982 38.5296C22.9947 39.0392 24.8724 39.3424 26.3627 39.3358C26.962 39.3443 27.4903 39.3131 27.8923 39.2579L27.6741 40.1621C27.2965 40.5108 24.6945 40.5957 20.7175 39.632Z" fill="white"/>
<path d="M10.287 34.85C14.7605 34.85 18.387 31.3354 18.387 27C18.387 22.6646 14.7605 19.15 10.287 19.15C5.81345 19.15 2.18695 22.6646 2.18695 27C2.18695 31.3354 5.81345 34.85 10.287 34.85Z" stroke="white" stroke-width="2.6"/>
<path d="M11.8999 40.895C11.7179 41.203 11.4869 41.357 11.2069 41.357C11.0249 41.357 10.8639 41.294 10.7239 41.168C10.5979 41.042 10.5349 40.874 10.5349 40.664C10.5349 40.496 10.5839 40.335 10.6819 40.181L18.7039 26.3C18.8859 25.992 19.1169 25.838 19.3969 25.838C19.5789 25.838 19.7329 25.908 19.8589 26.048C19.9989 26.174 20.0689 26.335 20.0689 26.531C20.0689 26.685 20.0269 26.846 19.9429 27.014L11.8999 40.895ZM10.2619 35.078C9.14193 35.078 8.26693 34.7 7.63693 33.944C7.00693 33.174 6.69193 32.04 6.69193 30.542C6.69193 29.058 7.00693 27.938 7.63693 27.182C8.26693 26.412 9.14193 26.027 10.2619 26.027C11.3819 26.027 12.2569 26.412 12.8869 27.182C13.5169 27.938 13.8319 29.058 13.8319 30.542C13.8319 32.04 13.5169 33.174 12.8869 33.944C12.2569 34.7 11.3819 35.078 10.2619 35.078ZM10.2619 33.86C10.9479 33.86 11.4519 33.594 11.7739 33.062C12.1099 32.53 12.2779 31.69 12.2779 30.542C12.2779 29.408 12.1099 28.575 11.7739 28.043C11.4519 27.511 10.9479 27.245 10.2619 27.245C9.57593 27.245 9.06493 27.511 8.72893 28.043C8.39293 28.575 8.22493 29.408 8.22493 30.542C8.22493 31.69 8.39293 32.53 8.72893 33.062C9.06493 33.594 9.57593 33.86 10.2619 33.86ZM20.3419 41.147C19.2219 41.147 18.3469 40.769 17.7169 40.013C17.0869 39.243 16.7719 38.109 16.7719 36.611C16.7719 35.127 17.0869 34.007 17.7169 33.251C18.3469 32.481 19.2219 32.096 20.3419 32.096C21.4759 32.096 22.3509 32.474 22.9669 33.23C23.5969 33.986 23.9119 35.113 23.9119 36.611C23.9119 38.109 23.5969 39.243 22.9669 40.013C22.3509 40.769 21.4759 41.147 20.3419 41.147ZM20.3419 39.929C21.0419 39.929 21.5529 39.67 21.8749 39.152C22.2109 38.62 22.3789 37.773 22.3789 36.611C22.3789 35.477 22.2109 34.644 21.8749 34.112C21.5389 33.58 21.0279 33.314 20.3419 33.314C19.6559 33.314 19.1449 33.58 18.8089 34.112C18.4869 34.644 18.3259 35.477 18.3259 36.611C18.3259 37.759 18.4869 38.599 18.8089 39.131C19.1449 39.663 19.6559 39.929 20.3419 39.929Z" fill="white"/>
<path fill-rule="evenodd" clip-rule="evenodd" d="M35.1082 12.0715C33.9251 12.0712 32.9658 11.1118 32.9655 9.92868C32.9655 9.69187 32.7736 9.5 32.5368 9.5C32.3 9.5 32.1084 9.69187 32.1084 9.92868C32.1078 11.1118 31.1487 12.0712 29.9653 12.0715C29.7288 12.0715 29.5369 12.2633 29.5369 12.5002C29.5369 12.7367 29.7288 12.9285 29.9653 12.9285C31.1487 12.9291 32.1078 13.8882 32.1084 15.0716C32.1084 15.3081 32.3 15.5 32.5368 15.5C32.7736 15.5 32.9655 15.3081 32.9655 15.0716C32.9658 13.8882 33.9251 12.9291 35.1082 12.9285C35.3451 12.9285 35.5369 12.7367 35.5369 12.5002C35.5369 12.2633 35.3451 12.0715 35.1082 12.0715Z" fill="white"/>
<path fill-rule="evenodd" clip-rule="evenodd" d="M4.21541 14.9286C3.32806 14.9284 2.60855 14.2089 2.60832 13.3215C2.60832 13.1439 2.46442 13 2.28681 13C2.1092 13 1.96553 13.1439 1.96553 13.3215C1.96507 14.2089 1.24579 14.9284 0.358205 14.9286C0.180828 14.9286 0.0369263 15.0725 0.0369263 15.2501C0.0369263 15.4275 0.180828 15.5714 0.358205 15.5714C1.24579 15.5719 1.96507 16.2911 1.96553 17.1787C1.96553 17.3561 2.1092 17.5 2.28681 17.5C2.46442 17.5 2.60832 17.3561 2.60832 17.1787C2.60855 16.2911 3.32806 15.5719 4.21541 15.5714C4.39302 15.5714 4.53693 15.4275 4.53693 15.2501C4.53693 15.0725 4.39302 14.9286 4.21541 14.9286Z" fill="white"/>
<path fill-rule="evenodd" clip-rule="evenodd" d="M13.7869 5.50003C13.0967 5.49984 12.5371 4.94023 12.5369 4.25006C12.5369 4.11192 12.425 4 12.2868 4C12.1487 4 12.037 4.11192 12.037 4.25006C12.0366 4.94023 11.4772 5.49984 10.7868 5.50003C10.6488 5.50003 10.5369 5.61195 10.5369 5.75009C10.5369 5.88805 10.6488 5.99997 10.7868 5.99997C11.4772 6.00034 12.0366 6.55977 12.037 7.25012C12.037 7.38808 12.1487 7.5 12.2868 7.5C12.425 7.5 12.5369 7.38808 12.5369 7.25012C12.5371 6.55977 13.0967 6.00034 13.7869 5.99997C13.925 5.99997 14.0369 5.88805 14.0369 5.75009C14.0369 5.61195 13.925 5.50003 13.7869 5.50003Z" fill="white"/>
<path fill-rule="evenodd" clip-rule="evenodd" d="M34.2869 34C33.5967 33.9998 33.0371 33.4402 33.0369 32.7501C33.0369 32.6119 32.925 32.5 32.7868 32.5C32.6487 32.5 32.537 32.6119 32.537 32.7501C32.5366 33.4402 31.9772 33.9998 31.2868 34C31.1489 34 31.0369 34.1119 31.0369 34.2501C31.0369 34.388 31.1489 34.5 31.2868 34.5C31.9772 34.5003 32.5366 35.0598 32.537 35.7501C32.537 35.8881 32.6487 36 32.7868 36C32.925 36 33.0369 35.8881 33.0369 35.7501C33.0371 35.0598 33.5967 34.5003 34.2869 34.5C34.425 34.5 34.5369 34.388 34.5369 34.2501C34.5369 34.1119 34.425 34 34.2869 34Z" fill="white"/>
<path fill-rule="evenodd" clip-rule="evenodd" d="M26.0725 2.78576C24.7908 2.78543 23.7515 1.74614 23.7512 0.464406C23.7512 0.207858 23.5433 0 23.2868 0C23.0302 0 22.8227 0.207858 22.8227 0.464406C22.822 1.74614 21.7831 2.78543 20.501 2.78576C20.2448 2.78576 20.0369 2.99362 20.0369 3.25017C20.0369 3.50638 20.2448 3.71424 20.501 3.71424C21.7831 3.71491 22.822 4.75386 22.8227 6.03593C22.8227 6.29214 23.0302 6.5 23.2868 6.5C23.5433 6.5 23.7512 6.29214 23.7512 6.03593C23.7515 4.75386 24.7908 3.71491 26.0725 3.71424C26.3291 3.71424 26.5369 3.50638 26.5369 3.25017C26.5369 2.99362 26.3291 2.78576 26.0725 2.78576Z" fill="white"/>
</g>
<defs>
<clipPath id="clip0">
<rect width="40.5" height="42" fill="white"/>
</clipPath>
</defs>
</svg>
