<svg width="33" height="32" viewBox="0 0 33 32" fill="none" xmlns="http://www.w3.org/2000/svg">
<path d="M16.9139 0H16.7416C7.90505 0 0.741608 7.16344 0.741608 16C0.741608 24.8366 7.90505 32 16.7416 32H16.9139C25.7505 32 32.9139 24.8366 32.9139 16C32.9139 7.16344 25.7505 0 16.9139 0Z" fill="white"/>
<path d="M9 23.9999H16.3119V16.7271H9V23.9999ZM10.4623 18.1817H14.8494V22.5341H10.4623V18.1817Z" fill="#FF5A00"/>
<path d="M13.3871 19.6362H11.9247V21.0909H13.3871V19.6362Z" fill="#FF5A00"/>
<path d="M22.1614 22.5454H20.6987V24H22.1614V22.5454Z" fill="#FF5A00"/>
<path d="M25.0861 22.5454H23.6234V24H25.0861V22.5454Z" fill="#FF5A00"/>
<path d="M23.6236 18.1817H22.1613V16.7271H17.7741V23.9999H19.2365V19.6362H20.6987V21.0909H25.086V16.7271H23.6236V18.1817Z" fill="#FF5A00"/>
<path d="M9 15.2729H16.3119V8H9V15.2729ZM10.4623 9.45443H14.8494V13.8181H10.4623V9.45443Z" fill="#FF5A00"/>
<path d="M13.3871 10.9091H11.9247V12.3637H13.3871V10.9091Z" fill="#FF5A00"/>
<path d="M17.7741 8V15.2729H25.0861V8H17.7741ZM23.6236 13.8181H19.2365V9.45443H23.6236V13.8181Z" fill="#FF5A00"/>
<path d="M22.1614 10.9091H20.6987V12.3637H22.1614V10.9091Z" fill="#FF5A00"/>
</svg>
