<svg width="35" height="35" viewBox="0 0 35 35" fill="none" xmlns="http://www.w3.org/2000/svg">
<path d="M30.0666 17.4582C29.9129 18.2099 29.2279 18.7574 28.4067 18.7915C28.1481 18.8017 27.9279 18.9853 27.879 19.2336C27.8266 19.4819 27.9559 19.7336 28.19 19.839C28.9344 20.1791 29.3502 20.941 29.193 21.6926L29.0462 22.4069C28.854 23.349 27.7846 23.9374 26.8481 23.7129C26.586 23.6517 26.3169 23.6041 26.0513 23.5531C25.6599 23.4782 25.2685 23.4 24.8771 23.3252C24.3599 23.2232 23.8427 23.1246 23.3255 23.0225C22.7104 22.9035 22.0919 22.781 21.4768 22.662C20.7884 22.5259 20.1 22.3933 19.4115 22.2573C18.6777 22.1144 17.9403 21.9716 17.2064 21.8253C16.4516 21.6791 15.6968 21.5294 14.9454 21.3832C14.1976 21.2369 13.4532 21.0906 12.7053 20.9444C11.9925 20.805 11.2795 20.6655 10.5667 20.5261C9.91317 20.4002 9.26317 20.271 8.60967 20.1451C8.04354 20.0363 7.47742 19.9241 6.91478 19.8152C6.46398 19.7268 6.01317 19.6384 5.55887 19.5499C5.24785 19.4887 4.9368 19.4275 4.62581 19.3663C4.4825 19.3391 4.33925 19.3085 4.19597 19.2813C4.18898 19.2813 4.18199 19.2779 4.17497 19.2779C4.25185 19.6316 4.21691 20.0091 4.04916 20.3628C3.69617 21.1043 2.87494 21.492 2.08519 21.3424C1.85105 21.2981 1.59594 21.3832 1.4946 21.594L1.18008 22.2573C1.07878 22.4681 1.18008 22.713 1.36533 22.8592C1.40028 22.8865 26.5895 34.1885 26.6314 34.1987C26.8655 34.2429 27.1206 34.1578 27.222 33.947L27.5365 33.2838C27.6378 33.0729 27.5365 32.828 27.3513 32.6818C26.7222 32.1954 26.4916 31.3349 26.8445 30.5935C27.1975 29.852 28.0187 29.4643 28.8085 29.6139C29.0426 29.6582 29.2978 29.5731 29.3991 29.3623L29.7136 28.699C29.8149 28.4882 29.7136 28.2433 29.5284 28.097C28.8993 27.6107 28.6687 26.7502 29.0217 26.0088C29.3746 25.2673 30.1958 24.8796 30.9856 25.0292C31.2198 25.0734 31.4749 24.9884 31.5762 24.7775L31.8907 24.1143C31.992 23.9034 31.8907 23.6586 31.7055 23.5123C31.0765 23.026 30.8458 22.1655 31.1988 21.424C31.5518 20.6826 32.373 20.2949 33.1627 20.4445C33.3969 20.4887 33.652 20.4037 33.7533 20.1928L34.0993 19.4581C34.2006 19.2473 34.1063 18.999 33.8896 18.9004L30.1259 17.21L30.0666 17.4582Z" fill="#FF5A00"/>
<path d="M0.466839 16.8453C0.508297 16.8658 27.3904 22.21 27.4353 22.21C27.6703 22.1998 27.8983 22.056 27.9432 21.83L28.0883 21.111C28.1332 20.8817 27.9812 20.6626 27.767 20.5633C27.0484 20.2278 26.6234 19.4403 26.7858 18.6324C26.9482 17.8244 27.6495 17.2595 28.4441 17.2253C28.6791 17.215 28.9071 17.0712 28.952 16.8453L29.0591 16.318L29.0971 16.1229C29.142 15.8935 28.99 15.6744 28.7758 15.5751C28.0572 15.2396 27.6322 14.4522 27.7946 13.6442C27.957 12.8362 28.6584 12.2713 29.453 12.2371C29.6879 12.2268 29.9159 12.083 29.9608 11.8571L30.1059 11.1381C30.1508 10.9087 29.9988 10.6896 29.7846 10.5904C29.066 10.2548 28.641 9.46741 28.8035 8.65945C28.9658 7.85148 29.6672 7.28659 30.4618 7.25235C30.6967 7.24208 30.9247 7.09829 30.9696 6.87233L31.132 6.07463C31.1769 5.84525 31.0283 5.62272 30.7969 5.57821C30.7969 5.57821 3.78352 0.210022 3.75588 0.210022C3.5555 0.210022 3.3793 0.350389 3.33784 0.548958L3.17547 1.34665C3.13055 1.57604 3.28257 1.79514 3.49677 1.89443C4.21537 2.22994 4.64032 3.01737 4.47794 3.82533C4.31556 4.6333 3.61423 5.19819 2.81962 5.23243C2.58465 5.2427 2.35667 5.38649 2.31176 5.61245L2.16665 6.3314C2.12174 6.56078 2.27375 6.77989 2.48795 6.87918C3.20656 7.21469 3.63154 8.00212 3.46913 8.81008C3.30675 9.61805 2.60542 10.1829 1.81081 10.2172C1.57588 10.2275 1.34786 10.3712 1.30294 10.5972L1.15784 11.3162C1.11293 11.5455 1.26498 11.7646 1.47914 11.8639C2.19778 12.1994 2.62273 12.9869 2.46032 13.7948C2.29794 14.6028 1.59661 15.1677 0.801993 15.202C0.567064 15.2122 0.339044 15.356 0.294131 15.582L0.149028 16.3009C0.100626 16.5303 0.252604 16.746 0.466839 16.8453ZM23.4933 8.07062C23.5866 7.60844 24.0427 7.30716 24.5091 7.3996C24.9755 7.49204 25.2795 7.94395 25.1862 8.40613L24.0461 14.0277L23.3448 17.4923C23.2619 17.8998 22.9026 18.1805 22.4983 18.1805C22.443 18.1805 22.3843 18.1737 22.3291 18.1634C21.8627 18.071 21.5586 17.6191 21.6519 17.1569L22.4362 13.2916L23.4933 8.07062ZM7.91893 4.97227C8.01221 4.51009 8.46825 4.20881 8.93465 4.30125C9.40105 4.39368 9.70508 4.8456 9.6118 5.30778L9.21795 7.24896L8.77231 9.45033L8.413 11.2238L7.77386 14.394C7.69098 14.8014 7.33164 15.0822 6.92742 15.0822C6.87214 15.0822 6.81341 15.0753 6.75817 15.0651C6.73399 15.0616 6.7098 15.0547 6.68907 15.0479C6.26067 14.9247 5.99462 14.4967 6.08448 14.0585L6.21227 13.4183L6.54739 11.7613L7.91893 4.97227Z" fill="#FF5A00"/>
</svg>
